Hostel 2005 BluRay 1080p DTS x264 Mux AleX-FraMeSToR

General
Format                           : Matroska
File size                        : 11.3 GiB
Duration                         : 1h 33mn
Overall bit rate                 : 17.3 Mbps
Movie name                       : Hostel (2005)
Encoded date                     : UTC 2010-01-30 17:52:08
Writing application              : mkvmerge v2.9.8 ('C'est le bon') built on Aug 13 2009 12:49:06
Writing library                  : libebml v0.7.7 + libmatroska v0.8.1

Video
ID                               : 1
Format                           : AVC
Format/Info                      : Advanced Video Codec
Format profile                   : High@L4.1
Format settings, CABAC           : Yes
Format settings, ReFrames        : 4 frames
Muxing mode                      : Container profile=Unknown@4.1
Codec ID                         : V_MPEG4/ISO/AVC
Duration                         : 1h 33mn
Bit rate                         : 15.0 Mbps
Nominal bit rate                 : 15.3 Mbps
Width                            : 1 920 pixels
Height                           : 816 pixels
Display aspect ratio             : 2.35:1
Frame rate                       : 23.976 fps
Resolution                       : 8 bits
Colorimetry                      : 4:2:0
Scan type                        : Progressive
Bits/(Pixel*Frame)               : 0.398
Stream size                      : 9.77 GiB (87%)
Title                            : Video 1080p BluRay x264
Writing library                  : x264 core 80 r1376M 3feaec2

Encoding settings
cabac=1 / ref=5 / deblock=1:-3:-3 / analyse=0x3:0x113 / me=umh / 
subme=10 / psy=1 / psy_rd=1.0:0.0 / mixed_ref=1 / me_range=48 / 
chroma_me=1 / trellis=2 / 8x8dct=1 / cqm=0 / deadzone=21,11 / 
fast_pskip=1 / chroma_qp_offset=-2 / threads=12 / sliced_threads=0 / 
nr=0 / decimate=1 / mbaff=0 / constrained_intra=0 / bframes=5 / 
b_pyramid=1 / b_adapt=2 / b_bias=0 / direct=2 / wpredb=1 / 
wpredp=2 / keyint=250 / keyint_min=25 / scenecut=40 / rc_lookahead=60 / 
rc=2pass / mbtree=1 / bitrate=15312 / ratetol=2.0 / qcomp=0.70 / qpmin=10 / 
qpmax=51 / qpstep=4 / cplxblur=20.0 / qblur=0.5 / vbv_maxrate=50000 / 
vbv_bufsize=50000 / ip_ratio=1.40 / aq=1:0.80

Audio #1
ID                               : 2
Format                           : AC-3
Format/Info                      : Audio Coding 3
Codec ID                         : A_AC3
Duration                         : 1h 33mn
Bit rate mode                    : Constant
Bit rate                         : 448 Kbps
Channel(s)                       : 6 channels
Channel positions                : Front: L C R, Surround: L R, LFE
Sampling rate                    : 48.0 KHz
Stream size                      : 300 MiB (3%)
Title                            : Italian DD5.1 @ 448 Kbps
Language                         : Italian

Audio #2
ID                               : 3
Format                           : DTS
Format/Info                      : Digital Theater Systems
Codec ID                         : A_DTS
Duration                         : 1h 33mn
Bit rate mode                    : Constant
Bit rate                         : 1 510 Kbps
Channel(s)                       : 6 channels
Channel positions                : Front: L C R, Surround: L R, LFE
Sampling rate                    : 48.0 KHz
Resolution                       : 24 bits
Stream size                      : 1 011 MiB (9%)
Title                            : English DTS 5.1 @ 1510 Kbps
Language                         : English

Subs #1
ID                               : 4
Format                           : UTF-8
Codec ID                         : S_TEXT/UTF8
Codec ID/Info                    : UTF-8 Plain Text
Title                            : Italian Subs
Language                         : Italian

Subs #2
ID                               : 5
Format                           : UTF-8
Codec ID                         : S_TEXT/UTF8
Codec ID/Info                    : UTF-8 Plain Text
Title                            : English Subs
Language                         : English

Menu                             : Yes